<svg width="262" height="219" viewBox="0 0 262 219" fill="none" xmlns="http://www.w3.org/2000/svg">
<path d="M47.6213 9.62138C46.4497 8.44981 44.5503 8.44981 43.3787 9.62138L30.5 22.5001H60.5L47.6213 9.62138Z" fill="#C96442"/>
<path d="M260.364 213.879C262.254 215.769 260.915 219 258.243 219H3.00001C1.34315 219 0 217.657 0 216V45.7574C0 44.9617 0.31607 44.1986 0.87868 43.636L43.3787 1.13603C44.5503 -0.0355417 46.4497 -0.0355431 47.6213 1.13603L260.364 213.879ZM50.7846 207.709L229.312 207.028C231.979 207.017 233.307 203.792 231.421 201.906L223.91 194.396C223.286 193.772 222.42 193.454 221.541 193.527L50.7846 207.709ZM50.7846 201L205.941 183.31C208.436 183.026 209.499 179.984 207.723 178.208L198.601 169.086C197.873 168.358 196.823 168.054 195.819 168.281L50.7846 201ZM48.1272 191.078C44.8845 192.711 46.7912 197.626 50.2873 196.645L182.698 159.504C184.906 158.884 185.631 156.116 184.009 154.494L164.344 134.83C163.429 133.914 162.029 133.689 160.873 134.272L48.1272 191.078ZM38.8609 183.644C36.2776 186.084 39.3303 190.195 42.4129 188.428L150.576 126.415C152.291 125.432 152.603 123.088 151.205 121.691L130.561 101.046C129.413 99.898 127.56 99.8716 126.379 100.986L38.8609 183.644ZM12 173.145C12 176.342 16.3349 177.321 17.7089 174.434L73.4588 57.2892C74.4062 55.2985 72.9546 53.0001 70.7499 53.0001H15C13.3431 53.0001 12 54.3432 12 56.0001V173.145ZM25.6893 177.372C24.138 180.423 28.0853 183.275 30.4945 180.844L117.914 92.6213C119.076 91.4482 119.072 89.5562 117.904 88.3884L89.688 60.1724C88.2461 58.7305 85.8167 59.1163 84.8925 60.9341L25.6893 177.372ZM25.6057 35.8787C23.7158 37.7686 25.0543 41.0001 27.727 41.0001H63.273C65.9457 41.0001 67.2842 37.7686 65.3943 35.8787L58.8943 29.3787C58.3317 28.8161 57.5686 28.5001 56.773 28.5001H34.227C33.4314 28.5001 32.6683 28.8161 32.1057 29.3787L25.6057 35.8787ZM45.349 16.1355C45.2144 16.27 45.3097 16.5001 45.5 16.5001C45.6903 16.5001 45.7856 16.27 45.651 16.1355C45.5676 16.0521 45.4324 16.0521 45.349 16.1355Z" fill="#C96442"/>
</svg>
